<svg xmlns="http://www.w3.org/2000/svg" xmlns:xlink="http://www.w3.org/1999/xlink" width="500" zoomAndPan="magnify" viewBox="0 0 375 374.999991" height="500" preserveAspectRatio="xMidYMid meet" version="1.0"><defs><g/><clipPath id="8cc2ddf7f5"><path d="M 43 3 L 323 3 L 323 231 L 43 231 Z M 43 3 " clip-rule="nonzero"/></clipPath><clipPath id="930e228e96"><path d="M 34.421875 14.148438 L 312.601562 -7.238281 L 329.558594 213.363281 L 51.378906 234.746094 Z M 34.421875 14.148438 " clip-rule="nonzero"/></clipPath><clipPath id="09a33a4dec"><path d="M 34.421875 14.148438 L 312.601562 -7.238281 L 329.558594 213.363281 L 51.378906 234.746094 Z M 34.421875 14.148438 " clip-rule="nonzero"/></clipPath></defs><g fill="#84251e" fill-opacity="1"><g transform="translate(50.93002, 310.931579)"><g><path d="M 54.796875 -67.640625 C 55.316406 -66.816406 55.78125 -65.71875 56.1875 -64.34375 C 56.601562 -62.96875 56.8125 -61.535156 56.8125 -60.046875 C 56.8125 -57.140625 56.195312 -55.070312 54.96875 -53.84375 C 53.738281 -52.625 52.082031 -52.015625 50 -52.015625 L 26.5625 -52.015625 L 26.5625 -39.390625 L 51 -39.390625 C 51.59375 -38.578125 52.09375 -37.5 52.5 -36.15625 C 52.914062 -34.820312 53.125 -33.410156 53.125 -31.921875 C 53.125 -29.085938 52.507812 -27.054688 51.28125 -25.828125 C 50.050781 -24.609375 48.394531 -24 46.3125 -24 L 26.78125 -24 L 26.78125 -0.453125 C 25.96875 -0.222656 24.6875 0 22.9375 0.21875 C 21.1875 0.445312 19.457031 0.5625 17.75 0.5625 C 16.03125 0.5625 14.519531 0.429688 13.21875 0.171875 C 11.914062 -0.0859375 10.816406 -0.550781 9.921875 -1.21875 C 9.035156 -1.894531 8.367188 -2.828125 7.921875 -4.015625 C 7.472656 -5.203125 7.25 -6.765625 7.25 -8.703125 L 7.25 -57.25 C 7.25 -60.457031 8.175781 -62.988281 10.03125 -64.84375 C 11.894531 -66.707031 14.429688 -67.640625 17.640625 -67.640625 Z M 54.796875 -67.640625 "/></g></g></g><g fill="#84251e" fill-opacity="1"><g transform="translate(110.178891, 310.931579)"><g><path d="M 3.90625 -33.921875 C 3.90625 -39.734375 4.816406 -44.867188 6.640625 -49.328125 C 8.460938 -53.796875 10.953125 -57.535156 14.109375 -60.546875 C 17.273438 -63.554688 21 -65.84375 25.28125 -67.40625 C 29.5625 -68.96875 34.191406 -69.75 39.171875 -69.75 C 44.160156 -69.75 48.789062 -68.96875 53.0625 -67.40625 C 57.34375 -65.84375 61.082031 -63.554688 64.28125 -60.546875 C 67.488281 -57.535156 70.003906 -53.796875 71.828125 -49.328125 C 73.648438 -44.867188 74.5625 -39.734375 74.5625 -33.921875 C 74.5625 -28.117188 73.664062 -22.96875 71.875 -18.46875 C 70.09375 -13.96875 67.617188 -10.207031 64.453125 -7.1875 C 61.296875 -4.175781 57.554688 -1.890625 53.234375 -0.328125 C 48.921875 1.234375 44.234375 2.015625 39.171875 2.015625 C 34.109375 2.015625 29.421875 1.210938 25.109375 -0.390625 C 20.796875 -1.992188 17.078125 -4.316406 13.953125 -7.359375 C 10.828125 -10.410156 8.367188 -14.164062 6.578125 -18.625 C 4.796875 -23.09375 3.90625 -28.191406 3.90625 -33.921875 Z M 24 -33.921875 C 24 -27.148438 25.375 -22.09375 28.125 -18.75 C 30.875 -15.40625 34.554688 -13.734375 39.171875 -13.734375 C 43.859375 -13.734375 47.578125 -15.40625 50.328125 -18.75 C 53.085938 -22.09375 54.46875 -27.148438 54.46875 -33.921875 C 54.46875 -40.617188 53.109375 -45.640625 50.390625 -48.984375 C 47.671875 -52.335938 43.96875 -54.015625 39.28125 -54.015625 C 34.664062 -54.015625 30.960938 -52.359375 28.171875 -49.046875 C 25.390625 -45.734375 24 -40.691406 24 -33.921875 Z M 24 -33.921875 "/></g></g></g><g fill="#84251e" fill-opacity="1"><g transform="translate(188.619468, 310.931579)"><g><path d="M 3.90625 -33.921875 C 3.90625 -39.734375 4.816406 -44.867188 6.640625 -49.328125 C 8.460938 -53.796875 10.953125 -57.535156 14.109375 -60.546875 C 17.273438 -63.554688 21 -65.84375 25.28125 -67.40625 C 29.5625 -68.96875 34.191406 -69.75 39.171875 -69.75 C 44.160156 -69.75 48.789062 -68.96875 53.0625 -67.40625 C 57.34375 -65.84375 61.082031 -63.554688 64.28125 -60.546875 C 67.488281 -57.535156 70.003906 -53.796875 71.828125 -49.328125 C 73.648438 -44.867188 74.5625 -39.734375 74.5625 -33.921875 C 74.5625 -28.117188 73.664062 -22.96875 71.875 -18.46875 C 70.09375 -13.96875 67.617188 -10.207031 64.453125 -7.1875 C 61.296875 -4.175781 57.554688 -1.890625 53.234375 -0.328125 C 48.921875 1.234375 44.234375 2.015625 39.171875 2.015625 C 34.109375 2.015625 29.421875 1.210938 25.109375 -0.390625 C 20.796875 -1.992188 17.078125 -4.316406 13.953125 -7.359375 C 10.828125 -10.410156 8.367188 -14.164062 6.578125 -18.625 C 4.796875 -23.09375 3.90625 -28.191406 3.90625 -33.921875 Z M 24 -33.921875 C 24 -27.148438 25.375 -22.09375 28.125 -18.75 C 30.875 -15.40625 34.554688 -13.734375 39.171875 -13.734375 C 43.859375 -13.734375 47.578125 -15.40625 50.328125 -18.75 C 53.085938 -22.09375 54.46875 -27.148438 54.46875 -33.921875 C 54.46875 -40.617188 53.109375 -45.640625 50.390625 -48.984375 C 47.671875 -52.335938 43.96875 -54.015625 39.28125 -54.015625 C 34.664062 -54.015625 30.960938 -52.359375 28.171875 -49.046875 C 25.390625 -45.734375 24 -40.691406 24 -33.921875 Z M 24 -33.921875 "/></g></g></g><g fill="#84251e" fill-opacity="1"><g transform="translate(267.060045, 310.931579)"><g><path d="M 26.671875 -14.515625 C 27.492188 -14.359375 28.5 -14.222656 29.6875 -14.109375 C 30.875 -14.003906 31.988281 -13.953125 33.03125 -13.953125 C 35.5625 -13.953125 37.882812 -14.320312 40 -15.0625 C 42.125 -15.8125 43.945312 -16.96875 45.46875 -18.53125 C 47 -20.09375 48.191406 -22.117188 49.046875 -24.609375 C 49.898438 -27.097656 50.328125 -30.09375 50.328125 -33.59375 C 50.328125 -40.289062 48.765625 -45.332031 45.640625 -48.71875 C 42.515625 -52.101562 38.347656 -53.796875 33.140625 -53.796875 C 32.097656 -53.796875 31.035156 -53.757812 29.953125 -53.6875 C 28.878906 -53.613281 27.785156 -53.5 26.671875 -53.34375 Z M 32.921875 1.78125 C 31.660156 1.78125 30.207031 1.742188 28.5625 1.671875 C 26.925781 1.597656 25.234375 1.445312 23.484375 1.21875 C 21.742188 1 20 0.722656 18.25 0.390625 C 16.5 0.0546875 14.878906 -0.40625 13.390625 -1 C 9.296875 -2.5625 7.25 -5.28125 7.25 -9.15625 L 7.25 -61.28125 C 7.25 -62.84375 7.675781 -64.050781 8.53125 -64.90625 C 9.394531 -65.757812 10.566406 -66.445312 12.046875 -66.96875 C 15.253906 -68.007812 18.640625 -68.695312 22.203125 -69.03125 C 25.773438 -69.363281 28.976562 -69.53125 31.8125 -69.53125 C 37.613281 -69.53125 42.875 -68.820312 47.59375 -67.40625 C 52.320312 -66 56.378906 -63.820312 59.765625 -60.875 C 63.148438 -57.9375 65.769531 -54.234375 67.625 -49.765625 C 69.488281 -45.304688 70.421875 -40.023438 70.421875 -33.921875 C 70.421875 -27.972656 69.523438 -22.785156 67.734375 -18.359375 C 65.953125 -13.929688 63.40625 -10.207031 60.09375 -7.1875 C 56.789062 -4.175781 52.832031 -1.925781 48.21875 -0.4375 C 43.601562 1.039062 38.503906 1.78125 32.921875 1.78125 Z M 32.921875 1.78125 "/></g></g></g><g fill="#84251e" fill-opacity="1"><g transform="translate(114.554745, 373.067226)"><g><path d="M 8.984375 0.171875 C 7.359375 0.171875 6.070312 -0.300781 5.125 -1.25 C 4.175781 -2.195312 3.703125 -3.488281 3.703125 -5.125 L 3.703125 -34.546875 C 4.117188 -34.617188 4.78125 -34.71875 5.6875 -34.84375 C 6.601562 -34.976562 7.476562 -35.046875 8.3125 -35.046875 C 9.175781 -35.046875 9.941406 -34.976562 10.609375 -34.84375 C 11.273438 -34.71875 11.832031 -34.484375 12.28125 -34.140625 C 12.738281 -33.796875 13.082031 -33.320312 13.3125 -32.71875 C 13.539062 -32.113281 13.65625 -31.316406 13.65625 -30.328125 L 13.65625 -7.859375 L 26.6875 -7.859375 C 26.957031 -7.441406 27.203125 -6.878906 27.421875 -6.171875 C 27.648438 -5.472656 27.765625 -4.742188 27.765625 -3.984375 C 27.765625 -2.460938 27.441406 -1.390625 26.796875 -0.765625 C 26.148438 -0.140625 25.296875 0.171875 24.234375 0.171875 Z M 8.984375 0.171875 "/></g></g></g><g fill="#84251e" fill-opacity="1"><g transform="translate(153.697189, 373.067226)"><g><path d="M 11.046875 -33.453125 C 11.679688 -33.835938 12.65625 -34.195312 13.96875 -34.53125 C 15.28125 -34.875 16.597656 -35.046875 17.921875 -35.046875 C 19.816406 -35.046875 21.492188 -34.769531 22.953125 -34.21875 C 24.421875 -33.675781 25.363281 -32.816406 25.78125 -31.640625 C 26.457031 -29.671875 27.191406 -27.375 27.984375 -24.75 C 28.785156 -22.132812 29.582031 -19.429688 30.375 -16.640625 C 31.175781 -13.859375 31.957031 -11.109375 32.71875 -8.390625 C 33.476562 -5.679688 34.144531 -3.28125 34.71875 -1.1875 C 34.257812 -0.65625 33.570312 -0.234375 32.65625 0.078125 C 31.75 0.398438 30.671875 0.5625 29.421875 0.5625 C 28.515625 0.5625 27.742188 0.484375 27.109375 0.328125 C 26.484375 0.179688 25.972656 -0.0390625 25.578125 -0.34375 C 25.179688 -0.644531 24.859375 -1.039062 24.609375 -1.53125 C 24.359375 -2.03125 24.140625 -2.601562 23.953125 -3.25 L 22.9375 -7.171875 L 12.640625 -7.171875 C 12.328125 -6.035156 12.019531 -4.859375 11.71875 -3.640625 C 11.414062 -2.429688 11.113281 -1.253906 10.8125 -0.109375 C 10.28125 0.078125 9.71875 0.234375 9.125 0.359375 C 8.539062 0.492188 7.832031 0.5625 7 0.5625 C 5.0625 0.5625 3.628906 0.234375 2.703125 -0.421875 C 1.773438 -1.085938 1.3125 -2.007812 1.3125 -3.1875 C 1.3125 -3.71875 1.382812 -4.25 1.53125 -4.78125 C 1.6875 -5.3125 1.859375 -5.9375 2.046875 -6.65625 C 2.316406 -7.675781 2.6875 -8.945312 3.15625 -10.46875 C 3.632812 -11.988281 4.15625 -13.628906 4.71875 -15.390625 C 5.289062 -17.160156 5.898438 -18.972656 6.546875 -20.828125 C 7.191406 -22.679688 7.796875 -24.429688 8.359375 -26.078125 C 8.929688 -27.734375 9.453125 -29.207031 9.921875 -30.5 C 10.398438 -31.789062 10.773438 -32.773438 11.046875 -33.453125 Z M 17.875 -26.125 C 17.34375 -24.53125 16.742188 -22.753906 16.078125 -20.796875 C 15.410156 -18.847656 14.8125 -16.867188 14.28125 -14.859375 L 21.34375 -14.859375 C 20.8125 -16.898438 20.269531 -18.894531 19.71875 -20.84375 C 19.164062 -22.800781 18.660156 -24.5625 18.203125 -26.125 Z M 17.875 -26.125 "/></g></g></g><g fill="#84251e" fill-opacity="1"><g transform="translate(199.324532, 373.067226)"><g><path d="M 34.9375 -1.1875 C 34.40625 -0.65625 33.632812 -0.25 32.625 0.03125 C 31.625 0.3125 30.421875 0.453125 29.015625 0.453125 C 27.617188 0.453125 26.289062 0.242188 25.03125 -0.171875 C 23.78125 -0.585938 22.757812 -1.59375 21.96875 -3.1875 L 16.328125 -14.6875 C 15.765625 -15.863281 15.253906 -16.972656 14.796875 -18.015625 C 14.335938 -19.054688 13.84375 -20.257812 13.3125 -21.625 L 12.96875 -21.5625 C 13.125 -19.519531 13.210938 -17.4375 13.234375 -15.3125 C 13.253906 -13.1875 13.265625 -11.097656 13.265625 -9.046875 L 13.265625 -0.234375 C 12.847656 -0.117188 12.210938 -0.00390625 11.359375 0.109375 C 10.503906 0.222656 9.660156 0.28125 8.828125 0.28125 C 7.984375 0.28125 7.238281 0.222656 6.59375 0.109375 C 5.957031 -0.00390625 5.425781 -0.226562 5 -0.5625 C 4.582031 -0.90625 4.257812 -1.367188 4.03125 -1.953125 C 3.8125 -2.546875 3.703125 -3.316406 3.703125 -4.265625 L 3.703125 -32.71875 C 4.234375 -33.476562 5.046875 -34.046875 6.140625 -34.421875 C 7.242188 -34.804688 8.421875 -35 9.671875 -35 C 11.078125 -35 12.414062 -34.78125 13.6875 -34.34375 C 14.957031 -33.90625 15.972656 -32.910156 16.734375 -31.359375 L 22.421875 -19.859375 C 22.992188 -18.679688 23.503906 -17.570312 23.953125 -16.53125 C 24.410156 -15.488281 24.90625 -14.285156 25.4375 -12.921875 L 25.71875 -12.96875 C 25.570312 -15.019531 25.476562 -17.066406 25.4375 -19.109375 C 25.394531 -21.160156 25.375 -23.210938 25.375 -25.265625 L 25.375 -34.484375 C 25.789062 -34.597656 26.425781 -34.710938 27.28125 -34.828125 C 28.132812 -34.941406 28.976562 -35 29.8125 -35 C 31.488281 -35 32.757812 -34.703125 33.625 -34.109375 C 34.5 -33.523438 34.9375 -32.300781 34.9375 -30.4375 Z M 34.9375 -1.1875 "/></g></g></g><g fill="#84251e" fill-opacity="1"><g transform="translate(247.909923, 373.067226)"><g><path d="M 13.59375 -7.390625 C 14.007812 -7.316406 14.519531 -7.25 15.125 -7.1875 C 15.738281 -7.132812 16.3125 -7.109375 16.84375 -7.109375 C 18.132812 -7.109375 19.316406 -7.296875 20.390625 -7.671875 C 21.472656 -8.054688 22.40625 -8.644531 23.1875 -9.4375 C 23.96875 -10.238281 24.578125 -11.273438 25.015625 -12.546875 C 25.453125 -13.816406 25.671875 -15.34375 25.671875 -17.125 C 25.671875 -20.539062 24.875 -23.109375 23.28125 -24.828125 C 21.6875 -26.554688 19.5625 -27.421875 16.90625 -27.421875 C 16.375 -27.421875 15.832031 -27.398438 15.28125 -27.359375 C 14.726562 -27.328125 14.164062 -27.273438 13.59375 -27.203125 Z M 16.78125 0.90625 C 16.132812 0.90625 15.394531 0.882812 14.5625 0.84375 C 13.726562 0.8125 12.863281 0.738281 11.96875 0.625 C 11.082031 0.507812 10.191406 0.363281 9.296875 0.1875 C 8.410156 0.0195312 7.585938 -0.210938 6.828125 -0.515625 C 4.742188 -1.304688 3.703125 -2.691406 3.703125 -4.671875 L 3.703125 -31.234375 C 3.703125 -32.035156 3.914062 -32.65625 4.34375 -33.09375 C 4.78125 -33.53125 5.378906 -33.878906 6.140625 -34.140625 C 7.773438 -34.671875 9.503906 -35.019531 11.328125 -35.1875 C 13.148438 -35.363281 14.78125 -35.453125 16.21875 -35.453125 C 19.175781 -35.453125 21.859375 -35.09375 24.265625 -34.375 C 26.679688 -33.65625 28.75 -32.546875 30.46875 -31.046875 C 32.195312 -29.546875 33.535156 -27.65625 34.484375 -25.375 C 35.429688 -23.101562 35.90625 -20.410156 35.90625 -17.296875 C 35.90625 -14.265625 35.445312 -11.617188 34.53125 -9.359375 C 33.625 -7.097656 32.328125 -5.195312 30.640625 -3.65625 C 28.953125 -2.125 26.929688 -0.976562 24.578125 -0.21875 C 22.234375 0.53125 19.632812 0.90625 16.78125 0.90625 Z M 16.78125 0.90625 "/></g></g></g><g clip-path="url(#8cc2ddf7f5)"><g clip-path="url(#930e228e96)"><g clip-path="url(#09a33a4dec)"><path fill="#84251e" d="M 93.496094 73.171875 C 86.628906 74.21875 69.957031 77.835938 57.796875 89.253906 C 48.6875 97.804688 41.894531 110.554688 43.300781 129.652344 C 44.667969 148.167969 53.816406 159.160156 64.65625 165.734375 C 76.921875 173.179688 91.617188 174.582031 99.269531 174.761719 C 101.167969 179.753906 102.691406 186.117188 103.65625 193.078125 C 104.699219 200.65625 105.054688 208.933594 104.359375 217.007812 L 103.199219 230.421875 L 114.988281 223.925781 C 127.816406 216.785156 152.261719 209.808594 178.355469 208.105469 C 184.914062 207.675781 191.5625 207.632812 198.199219 207.804688 C 202.636719 207.914062 207.023438 208.066406 211.417969 208.40625 C 217.070312 208.839844 222.523438 209.441406 228.003906 210.453125 C 233.789062 211.519531 239.226562 212.671875 244.679688 214.679688 C 240.316406 210.910156 235.824219 207.667969 230.699219 204.886719 C 225.628906 202.140625 220.296875 200.082031 214.691406 198.367188 C 210.277344 197.011719 205.773438 196.03125 201.171875 195.320312 C 198.136719 194.851562 195.074219 194.582031 192.003906 194.410156 C 180.355469 193.738281 168.675781 194.625 157.734375 196.226562 C 142.953125 198.394531 129.503906 202.140625 119.085938 206.25 C 119 201.070312 118.589844 195.960938 117.914062 191.105469 C 116.414062 180.289062 113.597656 170.71875 110.328125 164.292969 L 108.160156 160.015625 L 103.382812 160.382812 C 103.382812 160.382812 85.769531 161.828125 72 153.5625 C 64.476562 149.050781 58.269531 141.390625 57.246094 128.582031 C 56.140625 114.796875 60.707031 105.464844 67.242188 99.242188 C 76.28125 90.628906 88.597656 87.601562 94.398438 86.605469 C 94.710938 88.523438 95.101562 90.417969 95.566406 92.273438 C 99.308594 107.125 107.539062 119.371094 118.453125 124.90625 C 109.40625 117.90625 104.179688 105.292969 102.949219 91.03125 C 101.945312 79.382812 103.929688 66.785156 109.371094 55.289062 C 112.316406 49.0625 116.390625 43.304688 121.558594 38.152344 C 131.589844 28.15625 146.148438 20.917969 166.511719 19.589844 C 188.558594 18.039062 203.800781 23.578125 214.261719 31.929688 C 234.851562 48.375 236.902344 75.023438 236.902344 75.023438 L 237.582031 83.851562 L 246.265625 82.128906 C 246.265625 82.128906 269.042969 77.445312 287.179688 85.640625 C 297.296875 90.210938 305.679688 99.210938 307.042969 116.011719 C 308.40625 132.070312 303.371094 141.796875 295.828125 147.507812 C 289.621094 152.203125 282.035156 154.238281 275.566406 155.355469 C 269.390625 156.421875 264.140625 156.636719 261.703125 156.675781 C 262.019531 156.148438 262.320312 155.613281 262.601562 155.070312 C 264.117188 152.132812 265.238281 149.007812 265.871094 145.707031 C 266.332031 143.304688 266.625 140.910156 266.550781 138.398438 C 266.398438 133.085938 265.207031 127.921875 262.757812 122.480469 C 262.808594 125.632812 262.464844 128.445312 261.976562 131.328125 C 261.238281 135.675781 259.765625 139.441406 257.988281 143.160156 C 256.832031 145.582031 255.429688 147.785156 253.964844 149.980469 C 253 151.429688 251.960938 152.820312 250.9375 154.222656 C 248.28125 157.847656 245.429688 161.253906 241.960938 164.144531 C 236.390625 168.789062 230.230469 172.457031 223.039062 174.214844 C 231.007812 174.902344 238.742188 173.574219 245.878906 170.324219 C 248.398438 169.175781 250.742188 167.738281 252.9375 166.09375 C 252.25 170.96875 252.089844 175.945312 252.570312 181.070312 C 253.449219 190.394531 255.980469 199.71875 258.941406 209.398438 C 258.742188 199.585938 259.105469 190.269531 260.464844 181.292969 C 261.109375 177.023438 262.027344 172.957031 263.375 169.066406 C 266.753906 169.359375 271.761719 169.546875 277.445312 168.957031 C 286.074219 168.058594 296.078125 165.136719 304.414062 159.113281 C 315.347656 151.210938 323.695312 137.78125 322.117188 114.851562 C 320.773438 96.308594 313.007812 84.5625 303.011719 77.074219 C 286.648438 64.820312 263.371094 64.746094 251.25 65.734375 C 248.804688 54.507812 242.058594 33.960938 224.054688 19.640625 C 211.164062 9.390625 192.507812 2.125 165.390625 4.148438 C 144.671875 5.757812 128.835938 12.371094 117.355469 21.910156 C 113.625 25.007812 110.324219 28.390625 107.523438 32.050781 C 103.164062 37.75 99.832031 43.960938 97.585938 50.464844 C 95.023438 57.886719 93.683594 65.597656 93.496094 73.171875 Z M 93.496094 73.171875 " fill-opacity="1" fill-rule="evenodd"/></g></g></g></svg>